<svg width="651" height="400" viewBox="0 0 651 400" fill="none" xmlns="http://www.w3.org/2000/svg">
<path d="M151.455 208.987C146.027 220.336 153.23 234.173 164.566 234.173H270.984C273.717 234.173 276.231 232.471 277.54 229.735L291.418 200.72C309.829 162.229 294.904 131.025 258.083 131.025C250.719 131.025 247.734 124.785 251.416 117.087C255.098 109.388 264.053 103.148 271.417 103.148C308.238 103.148 353.013 71.9445 371.423 33.4533L381.401 12.593C384.115 6.91857 380.514 0 374.846 0H269.147C258.216 0 248.159 6.80846 242.925 17.7511L151.455 208.987Z" fill="#F9FDFF"/>
<path d="M318.087 200.72C336.497 162.229 381.272 131.025 418.093 131.025H474.852C480.52 131.025 484.121 137.944 481.407 143.618L446.585 216.422C441.351 227.365 431.293 234.173 420.363 234.173H314.664C308.996 234.173 305.395 227.255 308.109 221.58L318.087 200.72Z" fill="#F9FDFF"/>
<path d="M398.092 33.4533C379.681 71.9445 394.606 103.148 431.427 103.148H496.332C499.065 103.148 501.579 101.446 502.888 98.7099L538.055 25.186C543.483 13.8371 536.28 0 524.944 0H418.525C415.793 0 413.279 1.70211 411.97 4.43777L398.092 33.4533Z" fill="#F9FDFF"/>
<path fill-rule="evenodd" clip-rule="evenodd" d="M293.271 368.047C297.16 370.04 301.682 371.037 306.838 371.037C313.259 371.037 318.957 369.542 323.932 366.553C328.906 363.473 332.795 359.261 335.599 353.916C338.493 348.572 339.94 342.548 339.94 335.845C339.94 329.051 338.493 322.982 335.599 317.638C332.795 312.293 328.906 308.081 323.932 305.001C318.957 301.921 313.259 300.381 306.838 300.381C301.14 300.381 296.437 301.559 292.728 303.914C289.02 306.179 286.081 308.851 283.91 311.931V273.202H267.63V371.037H283.91V359.759C286.262 363.292 289.382 366.055 293.271 368.047ZM313.892 354.052C310.908 355.864 307.471 356.77 303.582 356.77C299.693 356.77 296.256 355.864 293.271 354.052C290.287 352.241 287.935 349.795 286.216 346.715C284.498 343.545 283.639 339.876 283.639 335.709C283.639 331.542 284.498 327.874 286.216 324.703C287.935 321.533 290.287 319.087 293.271 317.366C296.256 315.554 299.693 314.648 303.582 314.648C307.471 314.648 310.908 315.554 313.892 317.366C316.877 319.087 319.183 321.578 320.811 324.839C322.53 328.009 323.389 331.678 323.389 335.845C323.389 339.921 322.53 343.545 320.811 346.715C319.183 349.795 316.877 352.241 313.892 354.052Z" fill="#F9FDFF"/>
<path d="M16.8226 366.553C22.0683 369.542 28.0828 371.037 34.8661 371.037C43.2773 371.037 50.3772 368.772 56.1656 364.243C62.0444 359.623 65.7526 353.599 67.2902 346.171H50.332C49.4276 349.704 47.5734 352.422 44.7697 354.324C41.9659 356.226 38.6195 357.177 34.7304 357.177C31.4745 357.177 28.4446 356.362 25.6409 354.732C22.9275 353.01 20.7569 350.565 19.1289 347.394C17.5009 344.133 16.6869 340.238 16.6869 335.709C16.6869 331.089 17.5009 327.239 19.1289 324.16C20.7569 320.989 22.9275 318.589 25.6409 316.958C28.4446 315.237 31.4745 314.377 34.7304 314.377C38.6195 314.377 41.9659 315.328 44.7697 317.23C47.5734 319.132 49.4276 321.804 50.332 325.247H67.2902C65.6622 317.547 61.954 311.478 56.1656 307.039C50.3772 302.601 43.2773 300.381 34.8661 300.381C28.0828 300.381 22.0683 301.876 16.8226 304.865C11.5768 307.855 7.4616 312.021 4.47697 317.366C1.49233 322.62 0 328.734 0 335.709C0 342.684 1.49233 348.844 4.47697 354.188C7.4616 359.442 11.5768 363.563 16.8226 366.553Z" fill="#F9FDFF"/>
<path fill-rule="evenodd" clip-rule="evenodd" d="M108.105 371.037C101.413 371.037 95.3528 369.587 89.9262 366.689C84.59 363.699 80.3392 359.533 77.1737 354.188C74.0082 348.844 72.4253 342.684 72.4253 335.709C72.4253 328.644 74.0082 322.484 77.1737 317.23C80.3392 311.886 84.6353 307.764 90.0619 304.865C95.4885 301.876 101.503 300.381 108.105 300.381C114.889 300.381 120.948 301.876 126.285 304.865C131.621 307.764 135.872 311.886 139.037 317.23C142.203 322.484 143.786 328.644 143.786 335.709C143.786 342.684 142.203 348.844 139.037 354.188C135.872 359.533 131.576 363.699 126.149 366.689C120.813 369.587 114.798 371.037 108.105 371.037ZM108.105 356.906C111.542 356.906 114.663 356.136 117.466 354.596C120.361 352.965 122.667 350.61 124.385 347.53C126.104 344.36 126.963 340.419 126.963 335.709C126.963 330.999 126.104 327.104 124.385 324.024C122.667 320.853 120.361 318.498 117.466 316.958C114.663 315.328 111.588 314.512 108.241 314.512C104.804 314.512 101.639 315.328 98.7445 316.958C95.8503 318.498 93.544 320.853 91.8255 324.024C90.1071 327.104 89.2479 330.999 89.2479 335.709C89.2479 340.419 90.1071 344.36 91.8255 347.53C93.544 350.61 95.8051 352.965 98.6088 354.596C101.503 356.136 104.669 356.906 108.105 356.906Z" fill="#F9FDFF"/>
<path d="M169.178 326.334C168.093 329.776 167.55 334.124 167.55 339.378V371.037H151.27V302.012H167.55V312.338C169.269 308.987 171.485 306.36 174.198 304.458C176.911 302.465 180.032 301.468 183.559 301.468H192.649V316.007H181.931C178.765 316.007 176.097 316.868 173.927 318.589C171.846 320.219 170.264 322.801 169.178 326.334Z" fill="#F9FDFF"/>
<path fill-rule="evenodd" clip-rule="evenodd" d="M226.03 371.037C219.246 371.037 213.232 369.587 207.986 366.689C202.831 363.699 198.761 359.578 195.776 354.324C192.882 349.07 191.435 343.001 191.435 336.117C191.435 329.142 192.882 322.982 195.776 317.638C198.67 312.203 202.74 307.99 207.986 305.001C213.232 301.921 219.292 300.381 226.165 300.381C232.768 300.381 238.556 301.831 243.531 304.729C248.595 307.628 252.485 311.569 255.198 316.551C258.002 321.442 259.403 326.968 259.403 333.127V336.117C259.403 337.204 259.313 338.381 259.132 339.649H207.503C207.716 343.013 208.511 345.957 209.885 348.481C211.604 351.471 213.865 353.735 216.669 355.275C219.473 356.815 222.593 357.585 226.03 357.585C229.738 357.585 232.858 356.77 235.391 355.139C237.923 353.418 239.777 351.154 240.953 348.345H257.504C256.328 352.693 254.248 356.589 251.264 360.031C248.369 363.382 244.797 366.055 240.546 368.047C236.295 370.04 231.456 371.037 226.03 371.037ZM210.021 322.665C208.948 324.476 208.21 326.604 207.807 329.051H242.988C242.717 324.341 240.998 320.627 237.833 317.909C234.667 315.101 230.778 313.697 226.165 313.697C222.819 313.697 219.699 314.467 216.804 316.007C214.001 317.456 211.74 319.676 210.021 322.665Z" fill="#F9FDFF"/>
<path d="M370.134 304.458C367.421 306.36 365.205 308.987 363.487 312.338V302.012H347.207V371.037H363.487V339.378C363.487 334.124 364.029 329.776 365.115 326.334C366.2 322.801 367.783 320.219 369.863 318.589C372.034 316.868 374.702 316.007 377.867 316.007H388.585V301.468H379.495C375.968 301.468 372.848 302.465 370.134 304.458Z" fill="#F9FDFF"/>
<path fill-rule="evenodd" clip-rule="evenodd" d="M453.809 371.037C447.478 371.037 441.78 369.497 436.715 366.417C431.741 363.337 427.807 359.125 424.912 353.78C422.109 348.345 420.707 342.276 420.707 335.573C420.707 328.779 422.109 322.756 424.912 317.502C427.807 312.157 431.741 307.99 436.715 305.001C441.78 301.921 447.523 300.381 453.945 300.381C459.1 300.381 463.622 301.378 467.512 303.371C471.401 305.363 474.476 308.126 476.737 311.659V273.202H493.017V371.037H476.737V359.487C474.657 362.476 471.762 365.149 468.054 367.504C464.346 369.859 459.598 371.037 453.809 371.037ZM457.065 356.77C460.954 356.77 464.391 355.864 467.376 354.052C470.36 352.241 472.712 349.749 474.43 346.579C476.149 343.409 477.008 339.785 477.008 335.709C477.008 331.542 476.149 327.874 474.43 324.703C472.712 321.533 470.36 319.087 467.376 317.366C464.391 315.554 460.954 314.648 457.065 314.648C453.267 314.648 449.875 315.554 446.89 317.366C443.906 319.087 441.554 321.533 439.836 324.703C438.117 327.874 437.258 331.497 437.258 335.573C437.258 339.74 438.117 343.409 439.836 346.579C441.554 349.749 443.906 352.241 446.89 354.052C449.875 355.864 453.267 356.77 457.065 356.77Z" fill="#F9FDFF"/>
<path fill-rule="evenodd" clip-rule="evenodd" d="M539.219 400C533.431 400 527.959 399.049 522.804 397.147C517.648 395.244 513.307 392.3 509.78 388.315C506.253 384.329 504.082 379.256 503.268 373.097H519.412C520.407 376.992 522.668 380.072 526.195 382.336C529.723 384.691 533.974 385.869 538.948 385.869C542.475 385.869 545.731 385.099 548.716 383.559C551.791 382.11 554.188 379.845 555.906 376.765C557.715 373.685 558.62 370.72 558.62 366.009V357.313C557.263 359.578 555.499 361.661 553.328 363.563C551.158 365.466 548.535 367.006 545.46 368.183C542.385 369.361 538.858 369.95 534.878 369.95C528.547 369.95 522.804 368.455 517.648 365.466C512.584 362.386 508.559 358.219 505.574 352.965C502.589 347.621 501.097 341.642 501.097 335.03C501.097 328.508 502.589 322.62 505.574 317.366C508.559 312.112 512.584 307.99 517.648 305.001C522.804 301.921 528.592 300.381 535.014 300.381C540.35 300.381 545.053 301.514 549.123 303.778C553.193 305.952 556.358 308.715 558.62 312.067V302.012H574.899V365.33C574.899 373.029 573.272 378.577 570.016 383.831C566.85 389.175 562.554 393.206 557.127 395.924C551.791 398.641 545.822 400 539.219 400ZM538.134 355.819C542.114 355.819 545.596 354.913 548.58 353.101C551.655 351.289 554.052 348.844 555.771 345.764C557.579 342.593 558.484 339.061 558.484 335.166C558.484 331.18 557.579 327.647 555.771 324.567C554.052 321.487 551.655 319.087 548.58 317.366C545.596 315.554 542.114 314.648 538.134 314.648C534.154 314.648 530.627 315.554 527.552 317.366C524.477 319.087 522.08 321.487 520.362 324.567C518.643 327.557 517.784 331.044 517.784 335.03C517.784 339.015 518.643 342.593 520.362 345.764C522.08 348.844 524.477 351.289 527.552 353.101C530.627 354.913 534.154 355.819 538.134 355.819Z" fill="#F9FDFF"/>
<path fill-rule="evenodd" clip-rule="evenodd" d="M617.107 371.037C610.324 371.037 604.309 369.587 599.064 366.689C593.908 363.699 589.839 359.578 586.854 354.324C583.96 349.07 582.513 343.001 582.513 336.117C582.513 329.142 583.96 322.982 586.854 317.638C589.748 312.203 593.818 307.99 599.064 305.001C604.309 301.921 610.369 300.381 617.243 300.381C623.845 300.381 629.634 301.831 634.608 304.729C639.673 307.628 643.562 311.569 646.276 316.551C649.079 321.442 650.481 326.968 650.481 333.127V336.117C650.481 337.204 650.391 338.381 650.21 339.649H598.58C598.794 343.013 599.588 345.957 600.963 348.481C602.682 351.471 604.943 353.735 607.746 355.275C610.55 356.815 613.67 357.585 617.107 357.585C620.815 357.585 623.936 356.77 626.468 355.139C629.001 353.418 630.855 351.154 632.031 348.345H648.582C647.406 352.693 645.326 356.589 642.341 360.031C639.447 363.382 635.874 366.055 631.624 368.047C627.373 370.04 622.534 371.037 617.107 371.037ZM601.099 322.665C600.025 324.476 599.287 326.604 598.884 329.051H634.066C633.794 324.341 632.076 320.627 628.91 317.909C625.745 315.101 621.856 313.697 617.243 313.697C613.897 313.697 610.776 314.467 607.882 316.007C605.078 317.456 602.817 319.676 601.099 322.665Z" fill="#F9FDFF"/>
<path d="M396.977 371.037V302.012H413.257V371.037H396.977Z" fill="#F9FDFF"/>
<path d="M396.977 273.202V290.463H413.392V273.202H396.977Z" fill="#F9FDFF"/>
</svg>
