<?xml version="1.0" encoding="UTF-8"?>
<svg xmlns="http://www.w3.org/2000/svg" xmlns:xlink="http://www.w3.org/1999/xlink" version="1.1" id="Layer_1" x="0px" y="0px" viewBox="0 0 141.7 141.7" xml:space="preserve">
<g>
	<path fill="#FFFFFF" d="M52.5,25.5H16.7c-0.2,0-0.4,0.2-0.4,0.4v67.7c0,0.2,0.2,0.4,0.4,0.4h6.5c0.2,0,0.4-0.2,0.4-0.4V58.7H40   c0.1,0,0.3-0.1,0.3-0.2l3.8-6.5c0.1-0.1,0.1-0.3,0-0.4c-0.1-0.1-0.2-0.2-0.3-0.2H23.5V32.7h29c0.2,0,0.4-0.2,0.4-0.4v-6.5   C52.9,25.7,52.7,25.5,52.5,25.5z"></path>
	<path fill="#24ABE2" d="M52.5,124.1H16.7c-0.2,0-0.4,0.2-0.4,0.4v6.5c0,0.2,0.2,0.4,0.4,0.4h35.8c0.2,0,0.4-0.2,0.4-0.4v-6.5   C52.9,124.2,52.7,124.1,52.5,124.1z"></path>
	<path fill="#FFFFFF" d="M92.5,55.4c4.4-3.5,7-8.9,7-14.5c0-10.2-8.3-18.5-18.5-18.5s-18.5,8.3-18.5,18.5c0,5.6,2.6,11,7,14.5   c-6.8,4.1-10.9,11.4-10.9,19.2c0,12.4,10.1,22.4,22.4,22.4c12.4,0,22.4-10.1,22.4-22.4C103.4,66.8,99.2,59.4,92.5,55.4z M80.9,59.4   c8.4,0,15.2,6.8,15.2,15.2c0,8.4-6.8,15.2-15.2,15.2c-8.4,0-15.2-6.8-15.2-15.2C65.7,66.2,72.5,59.4,80.9,59.4z M80.9,52.2   c-6.2,0-11.3-5.1-11.3-11.3s5.1-11.3,11.3-11.3c6.2,0,11.3,5.1,11.3,11.3S87.1,52.2,80.9,52.2z"></path>
	<path fill="#24ABE2" d="M82.4,8.7H37.2c-0.2,0-0.4,0.2-0.4,0.4v6.5c0,0.2,0.2,0.4,0.4,0.4h37l-33.7,57c-0.1,0.2,0,0.4,0.1,0.5   l5.6,3.3c0.1,0,0.1,0.1,0.2,0.1c0,0,0.1,0,0.1,0c0.1,0,0.2-0.1,0.2-0.2l35.9-60.8c0.1-0.1,0.1-0.2,0.1-0.3V9   C82.8,8.8,82.6,8.7,82.4,8.7z"></path>
	<path fill="#24ABE2" d="M125,65H79.8c-0.2,0-0.4,0.2-0.4,0.4v6.5c0,0.2,0.2,0.4,0.4,0.4h37l-33.7,57c-0.1,0.2,0,0.4,0.1,0.5   l5.6,3.3c0.1,0,0.1,0.1,0.2,0.1c0,0,0.1,0,0.1,0c0.1,0,0.2-0.1,0.2-0.2l35.9-60.8c0.1-0.1,0.1-0.2,0.1-0.3v-6.5   C125.4,65.2,125.3,65,125,65z"></path>
</g>
</svg>
