<svg xmlns="http://www.w3.org/2000/svg" xmlns:xlink="http://www.w3.org/1999/xlink" width="500" zoomAndPan="magnify" viewBox="0 0 375 374.999991" height="500" preserveAspectRatio="xMidYMid meet" version="1.0"><defs><clipPath id="570676d660"><path d="M 129.058594 92.78125 L 246 92.78125 L 246 282.496094 L 129.058594 282.496094 Z M 129.058594 92.78125 " clip-rule="nonzero"/></clipPath><clipPath id="1f844544cb"><path d="M 243.429688 188.886719 C 242.242188 182.652344 241.210938 176.382812 240.210938 170.117188 C 240.113281 169.515625 240.019531 168.917969 239.921875 168.316406 C 239.589844 166.269531 239.605469 164.171875 239.441406 161.839844 C 237.082031 163.792969 235.710938 166.207031 234.644531 168.933594 C 234.332031 169.71875 234.046875 170.535156 233.769531 171.375 C 233.492188 170.765625 233.386719 170.503906 233.261719 170.25 C 232.984375 169.683594 232.710938 169.113281 232.4375 168.539062 C 231.453125 166.445312 230.496094 164.335938 229.324219 162.347656 C 223.164062 151.90625 215.183594 142.929688 206.257812 134.832031 C 198.597656 127.882812 190.578125 121.332031 182.75 114.566406 C 175.148438 107.992188 167.558594 101.390625 161.773438 92.78125 C 143.367188 116.183594 135.800781 142.195312 141.667969 171.921875 C 138.46875 168.449219 136.535156 164.515625 134.875 160.246094 C 134.550781 160.746094 134.324219 161.046875 134.140625 161.375 C 128.863281 170.839844 127.855469 180.871094 130.390625 191.285156 C 130.773438 192.863281 131.238281 194.402344 131.773438 195.898438 C 134.222656 202.78125 138.179688 208.886719 142.894531 214.570312 C 147.894531 220.609375 153.867188 225.609375 159.777344 230.679688 C 160.519531 231.3125 161.261719 231.949219 161.996094 232.589844 C 171.84375 241.148438 181.707031 249.6875 190.6875 259.175781 C 194.578125 263.285156 198.210938 267.601562 200.382812 272.933594 C 200.558594 273.367188 200.707031 273.8125 200.875 274.25 C 201.023438 274.636719 201.183594 275.023438 201.339844 275.40625 C 201.496094 269.488281 199.609375 264.179688 196.921875 259.101562 C 193.167969 252 188.347656 245.617188 183.308594 239.410156 C 178.898438 233.972656 174.332031 228.65625 169.839844 223.277344 C 168.632812 221.832031 167.429688 220.375 166.238281 218.914062 C 161.65625 213.300781 157.585938 207.308594 155.171875 200.414062 C 154.222656 197.703125 153.6875 194.804688 153.308594 191.945312 C 152.996094 189.582031 153.523438 187.230469 154.777344 185.085938 C 156.371094 188.035156 157.738281 190.988281 159.488281 193.6875 C 161.242188 196.402344 163.382812 198.863281 165.351562 201.433594 C 165.449219 201.359375 165.542969 201.285156 165.640625 201.210938 C 161.71875 194.085938 159.195312 186.652344 158.035156 178.910156 C 157.328125 174.207031 157.125 169.390625 157.425781 164.457031 C 158.207031 151.550781 161.929688 139.550781 168.347656 127.898438 C 173.902344 132.113281 179.320312 135.996094 184.488281 140.1875 C 193.949219 147.875 202.261719 156.625 208.933594 166.8125 C 209.589844 167.8125 210.234375 168.832031 210.859375 169.863281 C 215.65625 177.78125 219.203125 186.214844 221.003906 195.328125 C 222.101562 200.886719 222.640625 206.476562 222.113281 212.121094 C 222.054688 212.769531 221.980469 213.421875 221.890625 214.074219 C 221.792969 214.78125 221.710938 215.496094 221.617188 216.203125 C 222.628906 215.015625 223.4375 213.742188 224.121094 212.414062 C 225.257812 210.222656 226.050781 207.882812 226.867188 205.542969 C 227.355469 208.066406 227.625 210.574219 227.664062 213.058594 C 227.753906 218.0625 226.910156 222.984375 225.078125 227.808594 C 222.726562 233.992188 219.140625 239.339844 213.902344 243.804688 C 211.242188 232.882812 208.121094 222.21875 204.601562 211.722656 C 202.441406 205.277344 200.128906 198.898438 197.679688 192.558594 C 195.605469 187.183594 191.398438 178.066406 187.003906 169.214844 C 181.328125 157.765625 175.351562 146.753906 173.296875 144.84375 C 173.757812 145.792969 174.1875 146.621094 174.570312 147.464844 C 177.902344 154.835938 180.894531 162.335938 183.535156 169.964844 C 184.460938 172.621094 185.339844 175.296875 186.179688 177.988281 C 188.589844 185.734375 191.050781 193.480469 193.011719 201.347656 C 193.976562 205.21875 194.925781 209.097656 195.835938 212.980469 C 197.753906 221.0625 199.554688 229.175781 201.210938 237.3125 C 203.007812 246.175781 204.425781 255.140625 205.488281 264.121094 C 206.195312 270.121094 206.367188 276.296875 202.40625 281.746094 C 205.589844 282.390625 208.675781 282.558594 211.578125 281.03125 C 217.398438 277.964844 219.804688 272.746094 220.441406 266.5 C 220.523438 265.683594 220.691406 265.101562 221.398438 264.566406 C 225.246094 261.628906 228.785156 258.359375 231.953125 254.679688 C 240.441406 244.8125 245.203125 233.421875 245.804688 220.40625 C 245.824219 220.007812 245.839844 219.609375 245.855469 219.214844 C 246.234375 209.027344 245.34375 198.921875 243.429688 188.886719 " clip-rule="nonzero"/></clipPath></defs><g clip-path="url(#570676d660)"><g clip-path="url(#1f844544cb)"><path fill="#e88c24" d="M 129.058594 92.78125 L 245.941406 92.78125 L 245.941406 282.148438 L 129.058594 282.148438 Z M 129.058594 92.78125 " fill-opacity="1" fill-rule="nonzero"/></g></g></svg>